<?xml version="1.0" standalone="no"?>
<!DOCTYPE svg PUBLIC "-//W3C//DTD SVG 20010904//EN"
 "http://www.w3.org/TR/2001/REC-SVG-20010904/DTD/svg10.dtd">
<svg version="1.0" xmlns="http://www.w3.org/2000/svg"
 width="229.000000pt" height="220.000000pt" viewBox="0 0 229.000000 220.000000"
 preserveAspectRatio="xMidYMid meet">

<g transform="translate(0.000000,220.000000) scale(0.100000,-0.100000)"
fill="#000000" stroke="none">
<path d="M966 2104 c-118 -19 -210 -50 -317 -105 -201 -103 -345 -243 -453
-440 -145 -265 -151 -618 -16 -891 182 -367 545 -588 967 -588 434 0 820 254
984 649 80 193 91 461 27 661 -158 494 -672 802 -1192 714z m279 -74 c235 -31
443 -130 598 -286 152 -153 237 -327 267 -552 21 -155 -12 -336 -90 -494 -52
-105 -92 -160 -175 -244 -223 -225 -554 -333 -862 -280 -411 72 -726 371 -800
761 -22 115 -13 303 20 411 50 164 139 308 257 417 185 171 401 260 670 275
19 1 71 -3 115 -8z"/>
<path d="M1163 1862 c-176 -150 -172 -142 -78 -142 l77 0 -7 -27 c-13 -56 -52
-140 -89 -196 -114 -172 -352 -291 -543 -272 -79 8 -84 -8 -10 -31 80 -25 287
-31 381 -10 159 36 286 106 388 214 69 73 130 179 151 263 l14 54 68 5 69 5
-59 50 c-33 28 -91 77 -130 110 -38 33 -78 66 -87 73 -14 11 -33 -2 -145 -96z"/>
<path d="M1439 1533 c-4 -16 -6 -39 -8 -65 -1 -19 -7 -27 -23 -30 l-23 -3 -3
-492 c-2 -429 -4 -493 -17 -493 -13 0 -15 57 -15 445 0 331 -3 445 -12 445
-12 0 -185 -91 -440 -232 l-107 -59 -3 -111 -3 -111 -70 -39 c-38 -21 -89 -49
-112 -60 l-43 -22 0 -127 c0 -125 -1 -128 -23 -131 -14 -2 -23 -11 -25 -25 -2
-13 0 -23 5 -23 4 0 286 -1 625 -3 541 -2 617 0 621 13 6 24 -3 40 -24 40 -18
0 -19 16 -21 493 l-3 492 -22 3 c-20 3 -23 9 -23 53 l0 49 -115 0 c-63 0 -116
-3 -116 -7z m145 -289 c11 -4 16 -19 16 -50 0 -24 -3 -45 -7 -45 -12 -2 -46
-2 -70 -1 -20 2 -23 8 -23 45 0 24 3 47 7 50 8 9 56 9 77 1z m-316 -76 c-2
-15 -11 -24 -25 -26 -19 -3 -23 1 -23 22 0 21 5 26 26 26 21 0 25 -4 22 -22z
m332 -123 l0 -45 -50 0 -50 0 0 45 0 45 50 0 50 0 0 -45z m-500 -10 c0 -20 -5
-25 -25 -25 -20 0 -25 5 -25 25 0 20 5 25 25 25 20 0 25 -5 25 -25z m168 3
c-2 -15 -11 -24 -25 -26 -19 -3 -23 1 -23 22 0 21 5 26 26 26 21 0 25 -4 22
-22z m332 -143 c0 -29 -5 -45 -12 -46 -82 -8 -83 -7 -86 44 l-3 47 50 0 51 0
0 -45z m-672 7 c3 -18 -1 -22 -23 -22 -29 0 -45 27 -24 41 22 14 44 6 47 -19z
m170 0 c3 -18 -1 -22 -22 -22 -19 0 -26 5 -26 18 0 39 43 43 48 4z m170 1 c3
-19 -1 -23 -22 -23 -21 0 -26 5 -26 26 0 21 4 25 23 22 14 -2 23 -11 25 -25z
m-340 -125 c-3 -25 -34 -36 -50 -20 -17 17 -1 42 27 42 22 0 26 -4 23 -22z
m172 -4 c0 -21 -4 -25 -22 -22 -15 2 -24 11 -26 26 -3 18 1 22 22 22 21 0 26
-5 26 -26z m168 4 c-2 -15 -11 -24 -25 -26 -19 -3 -23 1 -23 22 0 21 5 26 26
26 21 0 25 -4 22 -22z m330 -35 l-3 -48 -45 0 -45 0 -3 48 -3 47 51 0 51 0 -3
-47z m-860 -100 c3 -19 -1 -23 -22 -23 -21 0 -26 5 -26 26 0 21 4 25 23 22 14
-2 23 -11 25 -25z m190 0 c3 -19 -1 -23 -22 -23 -29 0 -39 11 -30 35 10 24 48
15 52 -12z m172 2 c0 -20 -5 -25 -25 -25 -18 0 -25 5 -25 18 0 24 8 32 32 32
13 0 18 -7 18 -25z m168 -2 c3 -19 -1 -23 -22 -23 -21 0 -26 5 -26 26 0 21 4
25 23 22 14 -2 23 -11 25 -25z m330 -125 l3 -68 -51 0 -50 0 0 63 c0 35 3 67
7 71 4 4 25 6 48 4 l40 -3 3 -67z m-858 -3 c0 -20 -5 -25 -25 -25 -20 0 -25 5
-25 25 0 20 5 25 25 25 20 0 25 -5 25 -25z m188 3 c-4 -28 -42 -37 -52 -13 -9
24 1 35 30 35 21 0 25 -4 22 -22z m172 -3 c0 -20 -5 -25 -25 -25 -20 0 -25 5
-25 25 0 20 5 25 25 25 20 0 25 -5 25 -25z m168 3 c-2 -15 -11 -24 -25 -26
-19 -3 -23 1 -23 22 0 21 5 26 26 26 21 0 25 -4 22 -22z"/>
</g>
</svg>
