<?xml version="1.0" standalone="no"?>
<!DOCTYPE svg PUBLIC "-//W3C//DTD SVG 20010904//EN"
 "http://www.w3.org/TR/2001/REC-SVG-20010904/DTD/svg10.dtd">
<svg version="1.0" xmlns="http://www.w3.org/2000/svg"
 width="280.000000pt" height="277.000000pt" viewBox="0 0 280.000000 277.000000"
 preserveAspectRatio="xMidYMid meet">

<g transform="translate(0.000000,277.000000) scale(0.100000,-0.100000)"
fill="#000000" stroke="none">
<path d="M1495 2668 c-58 -29 -81 -54 -104 -109 l-22 -49 -97 0 c-104 0 -122
-7 -122 -46 0 -30 16 -34 124 -34 l93 0 31 -61 c30 -57 32 -69 32 -160 0 -98
0 -99 -28 -113 -45 -23 -102 -87 -114 -128 l-11 -38 -91 0 c-194 -1 -303 -37
-390 -130 -88 -94 -116 -187 -116 -387 0 -211 21 -233 225 -233 113 0 134 3
163 20 44 27 62 74 62 164 0 69 2 76 26 95 22 17 41 21 100 21 64 0 79 -4 121
-30 64 -41 102 -50 213 -50 111 0 159 11 217 51 l42 29 330 0 c286 0 332 2
345 16 13 13 16 46 16 209 0 189 -1 194 -22 209 -19 14 -66 16 -316 16 l-293
0 -15 36 c-24 56 -55 94 -101 121 l-43 25 0 100 c0 84 3 104 20 129 12 15 25
42 31 58 l11 30 100 3 c83 3 103 6 112 21 8 12 8 22 0 35 -9 14 -29 17 -112
20 l-101 3 -12 36 c-16 49 -85 116 -135 131 -60 18 -123 14 -169 -10z m163
-78 c94 -57 94 -181 0 -241 -25 -15 -44 -19 -77 -16 -141 15 -177 195 -50 259
45 23 86 23 127 -2z m12 -397 l0 -63 -80 0 -80 0 0 63 0 62 80 0 80 0 0 -62z
m72 -169 c15 -8 40 -31 55 -51 l28 -36 0 -172 0 -172 -28 -36 c-38 -50 -79
-69 -158 -75 -150 -10 -226 18 -266 98 -21 40 -23 59 -23 185 0 115 4 147 19
181 22 47 69 85 120 95 53 10 222 -1 253 -17z m-472 -301 c0 -65 3 -127 6
-139 5 -20 2 -21 -55 -22 -126 -1 -180 -70 -181 -228 0 -47 -4 -63 -16 -68
-30 -11 -229 -7 -242 6 -19 19 -16 304 3 358 31 87 114 169 198 196 24 7 94
13 165 13 l122 1 0 -117z m1188 -20 l-3 -138 -274 0 -274 0 2 130 c1 71 5 133
7 137 3 4 127 8 275 8 l270 0 -3 -137z"/>
<path d="M830 1028 c-157 -210 -264 -396 -296 -514 -15 -58 -16 -76 -6 -136
52 -303 399 -430 633 -230 55 48 106 143 121 229 14 86 0 150 -62 278 -54 112
-252 406 -295 437 -24 18 -45 4 -95 -64z m179 -183 c87 -127 166 -274 184
-345 35 -133 -32 -274 -159 -336 -142 -70 -328 -7 -394 132 -70 151 -33 268
189 587 l75 109 18 -24 c10 -13 49 -68 87 -123z"/>
</g>
</svg>
